<svg width="26" height="26" viewBox="0 0 26 26" fill="none" xmlns="http://www.w3.org/2000/svg">
<path d="M22.888 0.399902C23.6306 0.399902 24.3428 0.694901 24.8679 1.22C25.393 1.74511 25.688 2.4573 25.688 3.1999V22.7999C25.688 23.5425 25.393 24.2547 24.8679 24.7798C24.3428 25.3049 23.6306 25.5999 22.888 25.5999H3.28804C2.54543 25.5999 1.83324 25.3049 1.30814 24.7798C0.783036 24.2547 0.488037 23.5425 0.488037 22.7999V3.1999C0.488037 2.4573 0.783036 1.74511 1.30814 1.22C1.83324 0.694901 2.54543 0.399902 3.28804 0.399902H22.888ZM22.188 22.0999V14.6799C22.188 13.4695 21.7072 12.3086 20.8513 11.4527C19.9954 10.5968 18.8345 10.1159 17.624 10.1159C16.434 10.1159 15.048 10.8439 14.376 11.9359V10.3819H10.47V22.0999H14.376V15.1979C14.376 14.1199 15.244 13.2379 16.322 13.2379C16.8419 13.2379 17.3404 13.4444 17.708 13.812C18.0755 14.1795 18.282 14.6781 18.282 15.1979V22.0999H22.188ZM5.92004 8.1839C6.54383 8.1839 7.14207 7.9361 7.58315 7.49502C8.02424 7.05393 8.27204 6.45569 8.27204 5.8319C8.27204 4.5299 7.22204 3.4659 5.92004 3.4659C5.29254 3.4659 4.69073 3.71518 4.24702 4.15889C3.80331 4.6026 3.55404 5.2044 3.55404 5.8319C3.55404 7.1339 4.61804 8.1839 5.92004 8.1839ZM7.86604 22.0999V10.3819H3.98804V22.0999H7.86604Z" fill="black"/>
</svg>
