<svg width="30" height="25" viewBox="0 0 30 25" fill="none" xmlns="http://www.w3.org/2000/svg">
<path d="M29.888 3.60005C28.81 4.09005 27.648 4.41205 26.444 4.56605C27.676 3.82405 28.628 2.64805 29.076 1.23405C27.914 1.93405 26.626 2.42405 25.268 2.70405C24.162 1.50005 22.608 0.800049 20.844 0.800049C17.554 0.800049 14.866 3.48805 14.866 6.80605C14.866 7.28205 14.922 7.74405 15.02 8.17805C10.036 7.92605 5.59798 5.53205 2.64398 1.90605C2.12598 2.78805 1.83198 3.82405 1.83198 4.91605C1.83198 7.00205 2.88198 8.85005 4.50598 9.90005C3.51198 9.90005 2.58798 9.62005 1.77598 9.20005C1.77598 9.20005 1.77598 9.20005 1.77598 9.24205C1.77598 12.154 3.84798 14.59 6.59198 15.136C6.08798 15.276 5.55598 15.346 5.00998 15.346C4.63198 15.346 4.25398 15.304 3.88998 15.234C4.64598 17.6 6.84398 19.364 9.48998 19.406C7.44598 21.0301 4.85598 21.982 2.02798 21.982C1.55198 21.982 1.07598 21.954 0.599976 21.898C3.25998 23.606 6.42398 24.6 9.81198 24.6C20.844 24.6 26.906 15.444 26.906 7.50605C26.906 7.24005 26.906 6.98805 26.892 6.72205C28.068 5.88205 29.076 4.81805 29.888 3.60005Z" fill="black"/>
</svg>
